custom-analysis
version=1
nRows=4
nColumns=129
inDegrees=no

This file contains tibia displacement and acting force.

Units are S.I. units (seconds, meters, Newtons, ...)
Angles are in degrees.

endheader
time	displacement	knee_angle	aACL_R_force	pACL_R_force	aPCL_R_force	pPCL_R_force	aMCL_R_force	aLCL_R_force	aPCL_L_force	pPCL_L_force	aMCL_L_force	aLCL_L_force	aACL_R_length	pACL_R_length	aPCL_R_length	pPCL_R_length	aMCL_R_length	aLCL_R_length	aPCL_L_length	pPCL_L_length	aMCL_L_length	aLCL_L_length	aACL_R_strain	pACL_R_strain	aPCL_R_strain	pPCL_R_strain	aMCL_R_strain	aLCL_R_strain	aPCL_L_strain	pPCL_L_strain	aMCL_L_strain	aLCL_L_strain	femur_lat_meniscii_l.femur_lat_l.force.X	femur_lat_meniscii_l.femur_lat_l.force.Y	femur_lat_meniscii_l.femur_lat_l.force.Z	femur_lat_meniscii_l.femur_lat_l.torque.X	femur_lat_meniscii_l.femur_lat_l.torque.Y	femur_lat_meniscii_l.femur_lat_l.torque.Z	femur_lat_meniscii_l.meniscus_lat_l.force.X	femur_lat_meniscii_l.meniscus_lat_l.force.Y	femur_lat_meniscii_l.meniscus_lat_l.force.Z	femur_lat_meniscii_l.meniscus_lat_l.torque.X	femur_lat_meniscii_l.meniscus_lat_l.torque.Y	femur_lat_meniscii_l.meniscus_lat_l.torque.Z	femur_med_meniscii_l.femur_med_l.force.X	femur_med_meniscii_l.femur_med_l.force.Y	femur_med_meniscii_l.femur_med_l.force.Z	femur_med_meniscii_l.femur_med_l.torque.X	femur_med_meniscii_l.femur_med_l.torque.Y	femur_med_meniscii_l.femur_med_l.torque.Z	femur_med_meniscii_l.meniscus_med_l.force.X	femur_med_meniscii_l.meniscus_med_l.force.Y	femur_med_meniscii_l.meniscus_med_l.force.Z	femur_med_meniscii_l.meniscus_med_l.torque.X	femur_med_meniscii_l.meniscus_med_l.torque.Y	femur_med_meniscii_l.meniscus_med_l.torque.Z	femur_lat_meniscii_r.femur_lat_r.force.X	femur_lat_meniscii_r.femur_lat_r.force.Y	femur_lat_meniscii_r.femur_lat_r.force.Z	femur_lat_meniscii_r.femur_lat_r.torque.X	femur_lat_meniscii_r.femur_lat_r.torque.Y	femur_lat_meniscii_r.femur_lat_r.torque.Z	femur_lat_meniscii_r.meniscus_lat_r.force.X	femur_lat_meniscii_r.meniscus_lat_r.force.Y	femur_lat_meniscii_r.meniscus_lat_r.force.Z	femur_lat_meniscii_r.meniscus_lat_r.torque.X	femur_lat_meniscii_r.meniscus_lat_r.torque.Y	femur_lat_meniscii_r.meniscus_lat_r.torque.Z	femur_med_meniscii_r.femur_med_r.force.X	femur_med_meniscii_r.femur_med_r.force.Y	femur_med_meniscii_r.femur_med_r.force.Z	femur_med_meniscii_r.femur_med_r.torque.X	femur_med_meniscii_r.femur_med_r.torque.Y	femur_med_meniscii_r.femur_med_r.torque.Z	femur_med_meniscii_r.meniscus_med_r.force.X	femur_med_meniscii_r.meniscus_med_r.force.Y	femur_med_meniscii_r.meniscus_med_r.force.Z	femur_med_meniscii_r.meniscus_med_r.torque.X	femur_med_meniscii_r.meniscus_med_r.torque.Y	femur_med_meniscii_r.meniscus_med_r.torque.Z	femur_med_tibia_l.tibia_upper_l.force.X	femur_med_tibia_l.tibia_upper_l.force.Y	femur_med_tibia_l.tibia_upper_l.force.Z	femur_med_tibia_l.tibia_upper_l.torque.X	femur_med_tibia_l.tibia_upper_l.torque.Y	femur_med_tibia_l.tibia_upper_l.torque.Z	femur_med_tibia_l.femur_med_l.force.X	femur_med_tibia_l.femur_med_l.force.Y	femur_med_tibia_l.femur_med_l.force.Z	femur_med_tibia_l.femur_med_l.torque.X	femur_med_tibia_l.femur_med_l.torque.Y	femur_med_tibia_l.femur_med_l.torque.Z	femur_lat_tibia_l.tibia_upper_l.force.X	femur_lat_tibia_l.tibia_upper_l.force.Y	femur_lat_tibia_l.tibia_upper_l.force.Z	femur_lat_tibia_l.tibia_upper_l.torque.X	femur_lat_tibia_l.tibia_upper_l.torque.Y	femur_lat_tibia_l.tibia_upper_l.torque.Z	femur_lat_tibia_l.femur_lat_l.force.X	femur_lat_tibia_l.femur_lat_l.force.Y	femur_lat_tibia_l.femur_lat_l.force.Z	femur_lat_tibia_l.femur_lat_l.torque.X	femur_lat_tibia_l.femur_lat_l.torque.Y	femur_lat_tibia_l.femur_lat_l.torque.Z	femur_med_tibia_r.tibia_upper_r.force.X	femur_med_tibia_r.tibia_upper_r.force.Y	femur_med_tibia_r.tibia_upper_r.force.Z	femur_med_tibia_r.tibia_upper_r.torque.X	femur_med_tibia_r.tibia_upper_r.torque.Y	femur_med_tibia_r.tibia_upper_r.torque.Z	femur_med_tibia_r.femur_med_r.force.X	femur_med_tibia_r.femur_med_r.force.Y	femur_med_tibia_r.femur_med_r.force.Z	femur_med_tibia_r.femur_med_r.torque.X	femur_med_tibia_r.femur_med_r.torque.Y	femur_med_tibia_r.femur_med_r.torque.Z	femur_lat_tibia_r.tibia_upper_r.force.X	femur_lat_tibia_r.tibia_upper_r.force.Y	femur_lat_tibia_r.tibia_upper_r.force.Z	femur_lat_tibia_r.tibia_upper_r.torque.X	femur_lat_tibia_r.tibia_upper_r.torque.Y	femur_lat_tibia_r.tibia_upper_r.torque.Z	femur_lat_tibia_r.femur_lat_r.force.X	femur_lat_tibia_r.femur_lat_r.force.Y	femur_lat_tibia_r.femur_lat_r.force.Z	femur_lat_tibia_r.femur_lat_r.torque.X	femur_lat_tibia_r.femur_lat_r.torque.Y	femur_lat_tibia_r.femur_lat_r.torque.Z
      0.27219414	      0.03418635	    104.84139602	      0.00000000	      0.00000000	    989.13257572	    125.66966552	      0.00000000	      0.00000000	     36.51086228	      0.00000000	     73.42300556	    172.85562323	      0.02325398	      0.01907725	      0.03902039	      0.03674532	      0.05146499	      0.05010751	      0.01667301	      0.02005136	      0.06889992	      0.04651361	     -0.29071588	     -0.27563307	      0.45742706	      0.13763016	     -0.20355955	     -0.12414917	      0.09270289	     -0.18452860	      0.05188308	      0.03602547	    114.67779376	     77.67690267	     13.43835046	     -2.33317556	      0.38132575	     17.04254777	   -114.67779376	    -77.67690267	    -13.43835046	     -1.87519027	      3.39892233	     -2.98069195	     10.46466834	     29.69103080	      3.86631643	     -1.76984726	      1.14600523	     -3.98010100	    -10.46466834	    -29.69103080	     -3.86631643	      0.53486715	     -0.13265194	     -0.45922699	     41.48726282	     34.76862784	      6.84966139	     -3.61102553	      1.08430323	     16.36754603	    -41.48726282	    -34.76862784	     -6.84966139	      0.98639193	     -1.42931414	      1.28068695	      0.00034597	      0.00001697	      0.00013876	     -0.00005466	     -0.00000777	      0.00013722	     -0.00034597	     -0.00001697	     -0.00013876	     -0.00000085	      0.00000247	      0.00000182	      0.00000000	      0.00000000	      0.00000000	      0.00000000	      0.00000000	      0.00000000	      0.00000000	      0.00000000	      0.00000000	      0.00000000	      0.00000000	      0.00000000	      0.00000000	      0.00000000	      0.00000000	      0.00000000	      0.00000000	      0.00000000	      0.00000000	      0.00000000	      0.00000000	      0.00000000	      0.00000000	      0.00000000	   -450.36025116	    -99.98355159	     45.60628589	     -1.09073229	      6.78682963	      3.95651517	    450.36025116	     99.98355159	    -45.60628589	     19.69326843	     -6.96057362	    179.36188362	      0.00000000	      0.00000000	      0.00000000	      0.00000000	      0.00000000	      0.00000000	      0.00000000	      0.00000000	      0.00000000	      0.00000000	      0.00000000	      0.00000000
      0.27237184	      0.03421088	    104.93121090	      0.00000000	      0.00000000	    990.20022577	    127.65066099	      0.00000000	      0.00000000	     36.57789411	      0.00000000	     73.60102311	    173.14666459	      0.02323165	      0.01907312	      0.03902762	      0.03674497	      0.05146288	      0.05010022	      0.01667439	      0.02005385	      0.06890312	      0.04651497	     -0.29139685	     -0.27578999	      0.45769678	      0.13761939	     -0.20359221	     -0.12427650	      0.09279352	     -0.18442754	      0.05193191	      0.03605583	    114.96173206	     77.76380703	     13.47636915	     -2.34180657	      0.38725088	     17.07308384	   -114.96173206	    -77.76380703	    -13.47636915	     -1.87486499	      3.40637223	     -2.99293448	     10.45081918	     29.72646355	      3.84932550	     -1.76390630	      1.14303874	     -4.00429056	    -10.45081918	    -29.72646355	     -3.84932550	      0.53474302	     -0.13313040	     -0.45759251	     45.16958018	     37.22212759	      7.66626517	     -4.00023301	      1.18258130	     17.82680562	    -45.16958018	    -37.22212759	     -7.66626517	      1.05677568	     -1.56455555	      1.37062918	      0.00000000	      0.00000000	      0.00000000	      0.00000000	      0.00000000	      0.00000000	      0.00000000	      0.00000000	      0.00000000	      0.00000000	      0.00000000	      0.00000000	      0.00000000	      0.00000000	      0.00000000	      0.00000000	      0.00000000	      0.00000000	      0.00000000	      0.00000000	      0.00000000	      0.00000000	      0.00000000	      0.00000000	      0.00000000	      0.00000000	      0.00000000	      0.00000000	      0.00000000	      0.00000000	      0.00000000	      0.00000000	      0.00000000	      0.00000000	      0.00000000	      0.00000000	   -428.08510252	   -100.78814336	     39.71929991	     -1.09709540	      6.30050073	      4.01916974	    428.08510252	    100.78814336	    -39.71929991	     17.34588716	     -6.57315733	    170.41454766	      0.00000000	      0.00000000	      0.00000000	      0.00000000	      0.00000000	      0.00000000	      0.00000000	      0.00000000	      0.00000000	      0.00000000	      0.00000000	      0.00000000
      0.27254955	      0.03423514	    105.02122035	      0.00000000	      0.00000000	    989.47084295	    124.17495244	      0.00000000	      0.00000000	     36.64739090	      0.00000000	     73.77716204	    173.44030288	      0.02321063	      0.01906956	      0.03903473	      0.03674466	      0.05146191	      0.05009287	      0.01667577	      0.02005635	      0.06890633	      0.04651634	     -0.29203800	     -0.27592510	      0.45796233	      0.13760969	     -0.20360713	     -0.12440499	      0.09288420	     -0.18432575	      0.05198098	      0.03608636	    115.24742962	     77.86123000	     13.51425646	     -2.35012997	      0.39313329	     17.10128231	   -115.24742962	    -77.86123000	    -13.51425646	     -1.87482297	      3.41385352	     -3.00518380	     10.52931786	     29.77508250	      3.85550161	     -1.76598443	      1.14693878	     -4.00058485	    -10.52931786	    -29.77508250	     -3.85550161	      0.53578490	     -0.13430344	     -0.46008994	     49.06263398	     40.17745451	      8.48628339	     -4.40250866	      1.28560391	     19.36436705	    -49.06263398	    -40.17745451	     -8.48628339	      1.14052134	     -1.70538354	      1.48190441	      0.00000000	      0.00000000	      0.00000000	      0.00000000	      0.00000000	      0.00000000	      0.00000000	      0.00000000	      0.00000000	      0.00000000	      0.00000000	      0.00000000	      0.00000000	      0.00000000	      0.00000000	      0.00000000	      0.00000000	      0.00000000	      0.00000000	      0.00000000	      0.00000000	      0.00000000	      0.00000000	      0.00000000	      0.00000000	      0.00000000	      0.00000000	      0.00000000	      0.00000000	      0.00000000	      0.00000000	      0.00000000	      0.00000000	      0.00000000	      0.00000000	      0.00000000	   -398.87547812	    -95.70408817	     33.90141676	     -1.03891160	      5.74409454	      3.84128251	    398.87547812	     95.70408817	    -33.90141676	     14.94141571	     -6.09030027	    158.75471488	      0.00000000	      0.00000000	      0.00000000	      0.00000000	      0.00000000	      0.00000000	      0.00000000	      0.00000000	      0.00000000	      0.00000000	      0.00000000	      0.00000000
      0.27258747	      0.03424037	    105.04042780	      0.00000000	      0.00000000	    989.39694210	    123.69324496	      0.00000000	      0.00000000	     36.66237443	      0.00000000	     73.81469253	    173.50326492	      0.02320617	      0.01906878	      0.03903616	      0.03674452	      0.05146171	      0.05009122	      0.01667607	      0.02005689	      0.06890702	      0.04651663	     -0.29217399	     -0.27595479	      0.45801599	      0.13760536	     -0.20361027	     -0.12443380	      0.09290357	     -0.18430394	      0.05199148	      0.03609290	    115.29578358	     77.89752926	     13.51439506	     -2.34894892	      0.39254990	     17.09900844	   -115.29578358	    -77.89752926	    -13.51439506	     -1.87548627	      3.41523299	     -3.00716901	     10.54566372	     29.78548215	      3.85691223	     -1.76645967	      1.14778769	     -3.99994564	    -10.54566372	    -29.78548215	     -3.85691223	      0.53601218	     -0.13454800	     -0.46060375	     49.87911694	     40.77587398	      8.66516062	     -4.48914512	      1.30731340	     19.68712398	    -49.87911694	    -40.77587398	     -8.66516062	      1.15751241	     -1.73523215	      1.50436533	      0.00000000	      0.00000000	      0.00000000	      0.00000000	      0.00000000	      0.00000000	      0.00000000	      0.00000000	      0.00000000	      0.00000000	      0.00000000	      0.00000000	      0.00000000	      0.00000000	      0.00000000	      0.00000000	      0.00000000	      0.00000000	      0.00000000	      0.00000000	      0.00000000	      0.00000000	      0.00000000	      0.00000000	      0.00000000	      0.00000000	      0.00000000	      0.00000000	      0.00000000	      0.00000000	      0.00000000	      0.00000000	      0.00000000	      0.00000000	      0.00000000	      0.00000000	   -393.59105998	    -95.30565964	     32.79443891	     -1.03488984	      5.64119410	      3.82994881	    393.59105998	     95.30565964	    -32.79443891	     14.49288965	     -6.00233951	    156.64022186	      0.00000000	      0.00000000	      0.00000000	      0.00000000	      0.00000000	      0.00000000	      0.00000000	      0.00000000	      0.00000000	      0.00000000	      0.00000000	      0.00000000
